<?xml version="1.0" encoding="UTF-8"?>
<svg width="24px" height="22px" viewBox="0 0 24 22" version="1.1" xmlns="http://www.w3.org/2000/svg" xmlns:xlink="http://www.w3.org/1999/xlink">
    <!-- Generator: Sketch 43.2 (39069) - http://www.bohemiancoding.com/sketch -->
    <title>Logo</title>
    <desc>Created with Sketch.</desc>
    <defs>
        <linearGradient x1="15.643315%" y1="33.6437779%" x2="86.369008%" y2="90.3643012%" id="linearGradient-1">
            <stop stop-color="#2DB7F5" offset="0%"></stop>
            <stop stop-color="#EE33BA" stop-opacity="0.903702446" offset="100%"></stop>
        </linearGradient>
    </defs>
    <g id="SCAFFOLDS" stroke="none" stroke-width="1" fill="none" fill-rule="evenodd">
        <g id="Logo" fill="url(#linearGradient-1)">
            <path d="M24.0059172,16.9090909 L18.3921954,16.9090909 C18.0533771,16.9090909 17.7842702,17.1852718 17.7842702,17.5259581 L17.7842702,22.2272727 L14.8296351,22.2272727 L14.8296351,17.5259581 C14.8296351,17.1784042 14.5522726,16.9090909 14.2101285,16.9090909 L9.44914171,16.9090909 C9.10303375,16.9090909 8.82963511,17.1852718 8.82963511,17.5259581 L8.82963511,22.2272727 L4.08814103,22.2272727 L4.08814103,17.5259581 C4.08814103,17.1784042 3.81596367,16.9090909 3.48021588,16.9090909 L-0.258505917,16.9090909 L-0.258505917,14.5454545 L3.48021588,14.5454545 C3.8190341,14.5454545 4.08814103,14.2692737 4.08814103,13.9285873 L4.08814103,8.07141269 C4.08814103,7.72385875 3.81596367,7.45454545 3.48021588,7.45454545 L-0.258505917,7.45454545 L-0.258505917,5.09090909 L3.48021588,5.09090909 C3.8190341,5.09090909 4.08814103,4.81472822 4.08814103,4.47404186 L4.08814103,-0.227272727 L8.82963511,-0.227272727 L8.82963511,4.47404186 C8.82963511,4.8215958 9.10699766,5.09090909 9.44914171,5.09090909 L14.2101285,5.09090909 C14.5562365,5.09090909 14.8296351,4.81472822 14.8296351,4.47404186 L14.8296351,-0.227272727 L17.7842702,-0.227272727 L17.7842702,4.47404186 C17.7842702,4.8215958 18.0564476,5.09090909 18.3921954,5.09090909 L24.0059172,5.09090909 L24.0059172,7.45454545 L18.3921954,7.45454545 C18.0533771,7.45454545 17.7842702,7.73072632 17.7842702,8.07141269 L17.7842702,13.9285873 C17.7842702,14.2761413 18.0564476,14.5454545 18.3921954,14.5454545 L24.0059172,14.5454545 L24.0059172,16.9090909 Z M8.82963511,8.07141269 L8.82963511,13.9285873 C8.82963511,14.2761413 9.10699766,14.5454545 9.44914171,14.5454545 L14.2101285,14.5454545 C14.5562365,14.5454545 14.8296351,14.2692737 14.8296351,13.9285873 L14.8296351,8.07141269 C14.8296351,7.72385875 14.5522726,7.45454545 14.2101285,7.45454545 L9.44914171,7.45454545 C9.10303375,7.45454545 8.82963511,7.73072632 8.82963511,8.07141269 Z" id="Combined-Shape"></path>
        </g>
    </g>
</svg>